# xmcd
#
# Track frame offsets: 
#        150
#        20647
#        36410
#        53256
#        72966
#        87616
#        112150
#        119204
#        136531
#        155288
#        182574
#        200630
#
# Disc length: 2908 seconds
#
# Revision: 0
# Processed by: cddbd v1.5.2PL0 Copyright (c) Steve Scherf et al.
# Submitted via: ExactAudioCopy v0.95b3
#
DISCID=aa0b5a0c
DTITLE=Beverly Craven - Beverly Craven Legends - Disc 3 of 3
DYEAR=2005
DGENRE=Blues
TTITLE0=Talk To Me
TTITLE1=She Doesn't Need Saving
TTITLE2=Phoenix From The Fire
TTITLE3=Afraid of Letting Go
TTITLE4=Everything But The Blues
TTITLE5=It Doesn't Have To End This Way
TTITLE6=Hush Little Baby
TTITLE7=Holding On (West Coast Version)
TTITLE8=Love Scenes (Live)
TTITLE9=Memories (Live)
TTITLE10=Joey (Live)
TTITLE11=Two of a Kind (Live)
EXTD=
EXTT0=
EXTT1=
EXTT2=
EXTT3=
EXTT4=
EXTT5=
EXTT6=
EXTT7=
EXTT8=
EXTT9=
EXTT10=
EXTT11=
PLAYORDER=
